# xmcd CD database file
#
# Track frame offsets:
#	150
#	16942
#	35192
#	50188
#	73020
#	92282
#	116306
#	129793
#	148505
#	164096
#	185943
#	200914
#	227373
#	243760
#	272363
#	297480
#
# Disc length: 4179 seconds
#
# Revision: 1
# Processed by: cddbd v1.5.2PL0 Copyright (c) Steve Scherf et al.
# Submitted via: CDex 1.51
#
DISCID=e9105110
DTITLE=Fatih Erkoç and Kerem Görsev Trio - The Lady from Istanbul
DYEAR=2009
DGENRE=Jazz
TTITLE0=What Is This Thing Called Love
TTITLE1=Our Love Is Here To Stay
TTITLE2=I've Got The World On A String
TTITLE3=As Long As You Are Here With Me
TTITLE4=The Lady From Istanbul
TTITLE5=Don't Get Around Much Anymore
TTITLE6=True To You
TTITLE7=Green Dolphin Street
TTITLE8=I Should Care
TTITLE9=Caravan
TTITLE10=A Day In The Life Of A Fool (Black Orpheus)
TTITLE11=Secret Love (My Secret Love)
TTITLE12=Moon River
TTITLE13=Route 66
TTITLE14=When I Fall In Love
TTITLE15=Fly Me To The Moon
EXTD=YEAR: 2009
EXTT0=
EXTT1=
EXTT2=
EXTT3=
EXTT4=
EXTT5=
EXTT6=
EXTT7=
EXTT8=
EXTT9=
EXTT10=
EXTT11=
EXTT12=
EXTT13=
EXTT14=
EXTT15=
PLAYORDER=
